<svg version="1.2" xmlns="http://www.w3.org/2000/svg" viewBox="0 0 68 27" width="68" height="27"><defs><linearGradient id="P" gradientUnits="userSpaceOnUse"/><linearGradient id="g1" x2="1" href="#P" gradientTransform="matrix(0,-26.12,16.918,0,55,26.12)"><stop stop-color="#fff"/><stop offset="1" stop-color="#341399"/></linearGradient><linearGradient id="g2" x2="1" href="#P" gradientTransform="matrix(0,-26.12,16.918,0,12.07,26.12)"><stop stop-color="#fff"/><stop offset="1" stop-color="#341399"/></linearGradient><linearGradient id="g3" x2="1" href="#P" gradientTransform="matrix(0,15.14,-24.984,0,63.71,4.55)"><stop stop-color="#a33cff"/><stop offset=".5" stop-color="#5720ff"/><stop offset="1" stop-color="#0402fe"/></linearGradient><linearGradient id="g4" x2="1" href="#P" gradientTransform="matrix(0,15.14,-15.939,0,4.39,4.55)"><stop stop-color="#a33cff"/><stop offset=".5" stop-color="#5720ff"/><stop offset="1" stop-color="#0402fe"/></linearGradient><linearGradient id="g5" x2="1" href="#P" gradientTransform="matrix(0,15.14,-15.107,0,13.51,4.55)"><stop stop-color="#a33cff"/><stop offset=".5" stop-color="#5720ff"/><stop offset="1" stop-color="#0402fe"/></linearGradient><linearGradient id="g6" x2="1" href="#P" gradientTransform="matrix(0,15.14,-13.167,0,20.81,4.55)"><stop stop-color="#a33cff"/><stop offset=".5" stop-color="#5720ff"/><stop offset="1" stop-color="#0402fe"/></linearGradient><linearGradient id="g7" x2="1" href="#P" gradientTransform="matrix(0,15.14,-11.001,0,26.95,4.55)"><stop stop-color="#a33cff"/><stop offset=".5" stop-color="#5720ff"/><stop offset="1" stop-color="#0402fe"/></linearGradient><linearGradient id="g8" x2="1" href="#P" gradientTransform="matrix(0,15.14,-14.933,0,36.91,4.55)"><stop stop-color="#a33cff"/><stop offset=".5" stop-color="#5720ff"/><stop offset="1" stop-color="#0402fe"/></linearGradient><linearGradient id="g9" x2="1" href="#P" gradientTransform="matrix(0,15.14,-14.995,0,50.46,4.55)"><stop stop-color="#a33cff"/><stop offset=".5" stop-color="#5720ff"/><stop offset="1" stop-color="#0402fe"/></linearGradient></defs><style>.a{fill:url(#g1)}.b{fill:url(#g2)}.c{fill:#fff}.d{fill:url(#g3)}.e{fill:url(#g4)}.f{fill:url(#g5)}.g{fill:url(#g6)}.h{fill:url(#g7)}.i{fill:url(#g8)}.j{fill:url(#g9)}</style><path class="a" d="m57.1 8.6c-2-1.3-3.9-2.6-5.9-3.8q-1.3-0.9-2.6-1.7-0.6-0.4-1.3-0.9c-0.3-0.2-0.6-0.4-0.7-0.7q-0.1-0.4 0-0.7c0.1-0.3 0.3-0.5 0.5-0.7 0.7-0.4 1.6 0.4 2.2 0.7q0.8 0.5 1.5 0.9 1.6 0.9 3.1 1.8 1.4 0.8 2.8 1.6 1.7 1 3.5 2c2.6 1.4 3.5 3.5 3.2 6.5q-0.3 5.3-0.5 10.6c0 1.9-1.2 2.4-2.7 1.5-2-1.2-4.1-4.3-4.2-5-0.6-3.6 1.2-7.1 1.9-10.5 0.2-0.7-0.3-1.2-0.8-1.6z"/><path class="b" d="m10 8.6c1.9-1.3 3.9-2.6 5.9-3.8q1.3-0.9 2.6-1.7 0.6-0.4 1.3-0.9c0.3-0.2 0.6-0.4 0.7-0.7q0.1-0.4 0-0.7c-0.1-0.3-0.3-0.5-0.5-0.7-0.8-0.4-1.6 0.4-2.2 0.7q-0.8 0.5-1.6 0.9-1.5 0.9-3 1.8-1.4 0.8-2.8 1.6-1.8 1-3.5 2c-2.6 1.4-3.6 3.5-3.2 6.5q0.2 5.3 0.5 10.6c0 1.9 1.2 2.4 2.7 1.5 2-1.2 4.1-4.3 4.2-5 0.6-3.6-1.3-7.1-1.9-10.5-0.2-0.7 0.3-1.2 0.8-1.6z"/><path class="c" d="m31 8.7l-0.7 1.2q0.3 0.3 0.4 0.6h1.7c-0.3-0.8-0.8-1.4-1.4-1.8z"/><path class="c" d="m29.8 15q-0.6 0.3-1.3 0.3-0.5 0-1.1-0.2l-0.6 1.1q0.8 0.3 1.7 0.3c0.8 0 1.7-0.2 2.4-0.7 0.7-0.4 1.2-1.1 1.5-1.8h-1.7c-0.2 0.4-0.5 0.7-0.9 1z"/><path fill-rule="evenodd" class="c" d="m39.8 11.3c0.3 0.6 0.5 1.2 0.5 1.8 0 0.6-0.2 1.2-0.5 1.8-0.3 0.5-0.7 0.9-1.2 1.2-0.6 0.3-1.2 0.4-1.8 0.4q-0.9 0-1.6-0.4c-0.5-0.3-1-0.7-1.2-1.2-0.3-0.6-0.5-1.2-0.5-1.8q0-1 0.5-1.8 0.4-0.8 1.2-1.2 0.8-0.4 1.7-0.4c0.6 0 1.2 0.1 1.7 0.4 0.5 0.3 1 0.7 1.2 1.2zm-0.9 1.8q0-0.6-0.3-1.2-0.3-0.5-0.7-0.8-0.5-0.2-1-0.2-0.6 0-1 0.2-0.5 0.3-0.7 0.8-0.3 0.6-0.3 1.2c0 0.6 0.2 1.2 0.5 1.7 0.4 0.3 0.9 0.5 1.4 0.5q0.6 0 1-0.2 0.5-0.3 0.8-0.8 0.3-0.5 0.3-1.2z"/><path class="c" d="m57.7 10q-0.7-0.3-1.4-0.3-0.6 0-1.1 0.2-0.5 0.2-0.9 0.7v-0.8h-1.4v6.6h1.4v-3.7c0-0.5 0.1-1 0.5-1.3 0.7-0.7 1.7-0.7 2.4 0 0.3 0.3 0.5 0.8 0.4 1.3v3.8h1.4v-3.9q0-0.9-0.3-1.6c-0.2-0.4-0.6-0.8-1-1z"/><path fill-rule="evenodd" class="c" d="m46.6 7.5h1.4v8.9h-1.4v-1q-0.4 0.5-0.9 0.8-0.7 0.3-1.4 0.3-0.8 0-1.6-0.4c-0.5-0.3-0.9-0.8-1.1-1.3q-0.4-0.8-0.4-1.8 0-0.9 0.4-1.7 0.4-0.7 1.1-1.2 0.8-0.4 1.6-0.4 0.7 0 1.3 0.3 0.6 0.2 1 0.7zm0 5.6q0-0.6-0.3-1.2c-0.3-0.6-1-1-1.7-1q-0.5 0-1 0.3-0.5 0.2-0.7 0.7-0.3 0.6-0.3 1.2 0 0.6 0.3 1.2c0.5 0.9 1.6 1.3 2.6 0.8 0.3-0.2 0.6-0.5 0.8-0.8q0.3-0.6 0.3-1.2z"/><path class="c" d="m49.8 9.8h1.3v6.6h-1.3z"/><path fill-rule="evenodd" class="c" d="m67.1 13.1q0 0 0 0c0 0.6-0.2 1.2-0.5 1.8-0.3 0.5-0.7 0.9-1.3 1.2q-0.8 0.4-1.7 0.4c-0.6 0-1.2-0.1-1.7-0.4q-0.8-0.4-1.2-1.2c-0.3-0.6-0.4-1.2-0.4-1.8q0-1 0.4-1.8 0.5-0.8 1.2-1.2c1.1-0.6 2.4-0.6 3.5 0 0.1 0.1 0.2 0.1 0.2 0.2v-0.5h1.5zm-1.7-1.2q-0.3-0.5-0.8-0.7c-0.6-0.4-1.4-0.4-2 0q-0.5 0.2-0.7 0.7-0.3 0.6-0.3 1.2c0 0.6 0.2 1.2 0.6 1.7 0.3 0.4 0.8 0.6 1.4 0.6q0.5 0 1-0.3 0.5-0.3 0.8-0.7c0.3-0.8 0.3-1.7 0-2.5z"/><path class="d" d="m65.5 17.2q0 0.3-0.1 0.6c-0.4 0.6-1.1 1-1.8 1-0.5 0-1-0.2-1.4-0.6q-0.3-0.4-0.4-0.9h-1.4q0.1 0.6 0.3 1c0.3 0.5 0.7 1 1.2 1.2 0.5 0.3 1.1 0.5 1.7 0.5q0.9 0 1.8-0.5c0.5-0.2 0.9-0.7 1.2-1.2 0.3-0.5 0.5-1.1 0.5-1.7v-0.7c-0.4 0.6-0.9 1-1.6 1.3z"/><path class="e" d="m4.4 14.6l-2.9-6.5h-1.5v8.3h1.4v-5.7l2.5 5.7h1l2.5-5.7v5.7h1.4v-8.3h-1.5l-2.9 6.5z"/><path fill-rule="evenodd" class="f" d="m15.5 9.8h1.4v6.6h-1.4v-1q-0.4 0.5-0.9 0.8c-0.9 0.4-2.1 0.4-2.9-0.1-0.5-0.3-0.9-0.8-1.2-1.3q-0.4-0.8-0.4-1.8 0-0.9 0.4-1.7c0.6-1 1.6-1.6 2.7-1.6q0.8 0 1.4 0.3 0.6 0.3 0.9 0.8zm0 3.3q0-0.6-0.3-1.2-0.2-0.5-0.7-0.8-0.5-0.2-1-0.2-0.5 0-1 0.2-0.5 0.3-0.7 0.8-0.3 0.6-0.3 1.2 0 0.6 0.3 1.2 0.3 0.5 0.7 0.8c0.7 0.3 1.4 0.3 2 0 0.4-0.2 0.6-0.5 0.8-0.8q0.3-0.6 0.2-1.2z"/><path class="g" d="m22.3 9.8l-1.3 2.3-1.5-2.3h-1.6l2.2 3.4-2.2 3.2h1.5l1.3-2.2 1.4 2.2h1.6l-2.2-3.3 2.2-3.3h-1.4z"/><path class="h" d="m27 9.5q0.7-0.4 1.5-0.3 0.3 0 0.5 0l0.6-1.1q-0.5-0.1-1.1-0.1c-0.7 0-1.5 0.1-2.1 0.5-0.7 0.4-1.2 0.9-1.6 1.5-0.7 1.4-0.7 3.1 0 4.4q0.3 0.5 0.8 0.9l0.6-1.1q-0.1-0.2-0.2-0.4c-0.2-0.5-0.4-1-0.4-1.6q0-0.8 0.4-1.6c0.2-0.4 0.6-0.8 1-1.1z"/><path class="i" d="m36.3 12.4q-0.3 0.3-0.3 0.7c0 0.2 0.1 0.4 0.3 0.6 0.3 0.3 0.9 0.3 1.2 0q0.3-0.3 0.3-0.6 0-0.4-0.3-0.7c-0.3-0.3-0.9-0.3-1.2 0z"/><path class="j" d="m50.5 7.2q-0.4 0-0.7 0.2c-0.3 0.4-0.3 0.9 0 1.3q0.3 0.2 0.7 0.2 0.3 0 0.6-0.2c0.3-0.4 0.3-0.9 0-1.3-0.2-0.1-0.4-0.2-0.6-0.2z"/></svg>